{
  "accessors": [
    {
      "bufferView": 2,
      "componentType": 5126,
      "count": 316,
      "max": [
        0.49999967217445374,
        0.10000013560056686,
        4.800000190734863
      ],
      "min": [
        -0.5,
        -0.10000013560056686,
        -2.249264717102051
      ],
      "type": "VEC3"
    },
    {
      "bufferView": 2,
      "byteOffset": 3792,
      "componentType": 5126,
      "count": 316,
      "max": [
        0.9999943971633911,
        1.0,
        1.0
      ],
      "min": [
        -0.9999943971633911,
        -1.0,
        -0.8530041575431824
      ],
      "type": "VEC3"
    },
    {
      "bufferView": 3,
      "componentType": 5126,
      "count": 316,
      "max": [
        0.999997615814209,
        0.9999968409538269,
        0.7344906330108643,
        -1.0
      ],
      "min": [
        -0.00042325668619014323,
        -0.9999929070472717,
        -0.5606486797332764,
        -1.0
      ],
      "type": "VEC4"
    },
    {
      "bufferView": 1,
      "componentType": 5126,
      "count": 316,
      "max": [
        0.34831422567367554,
        0.9920104742050171
      ],
      "min": [
        0.007989530451595783,
        0.007989466190338135
      ],
      "type": "VEC2"
    },
    {
      "bufferView": 1,
      "byteOffset": 2528,
      "componentType": 5126,
      "count": 316,
      "max": [
        0.34831422567367554,
        0.9920104742050171
      ],
      "min": [
        0.007989530451595783,
        0.007989466190338135
      ],
      "type": "VEC2"
    },
    {
      "bufferView": 1,
      "byteOffset": 5056,
      "componentType": 5126,
      "count": 316,
      "max": [
        0.34831422567367554,
        0.9920104742050171
      ],
      "min": [
        0.007989530451595783,
        0.007989466190338135
      ],
      "type": "VEC2"
    },
    {
      "bufferView": 1,
      "byteOffset": 7584,
      "componentType": 5126,
      "count": 316,
      "max": [
        0.34831422567367554,
        0.9920104742050171
      ],
      "min": [
        0.007989530451595783,
        0.007989466190338135
      ],
      "type": "VEC2"
    },
    {
      "bufferView": 0,
      "componentType": 5125,
      "count": 1632,
      "type": "SCALAR"
    },
    {
      "bufferView": 2,
      "byteOffset": 7584,
      "componentType": 5126,
      "count": 444,
      "max": [
        0.24811482429504395,
        0.10000019520521164,
        -2.5655882358551025
      ],
      "min": [
        -0.24811482429504395,
        -0.10000019520521164,
        -4.187868118286133
      ],
      "type": "VEC3"
    },
    {
      "bufferView": 2,
      "byteOffset": 12912,
      "componentType": 5126,
      "count": 444,
      "max": [
        0.9998461008071899,
        1.0,
        0.8504807949066162
      ],
      "min": [
        -0.9998461008071899,
        -1.0,
        -0.8451762199401855
      ],
      "type": "VEC3"
    },
    {
      "bufferView": 3,
      "byteOffset": 5056,
      "componentType": 5126,
      "count": 444,
      "max": [
        0.8074262738227844,
        0.7273528575897217,
        1.0,
        -1.0
      ],
      "min": [
        -0.8049103617668152,
        -0.8048751354217529,
        0.4580933153629303,
        -1.0
      ],
      "type": "VEC4"
    },
    {
      "bufferView": 1,
      "byteOffset": 10112,
      "componentType": 5126,
      "count": 444,
      "max": [
        0.9881994724273682,
        0.9881994128227234
      ],
      "min": [
        0.011800558306276798,
        0.2515026330947876
      ],
      "type": "VEC2"
    },
    {
      "bufferView": 1,
      "byteOffset": 13664,
      "componentType": 5126,
      "count": 444,
      "max": [
        0.9881994724273682,
        0.9881994128227234
      ],
      "min": [
        0.011800558306276798,
        0.2515026330947876
      ],
      "type": "VEC2"
    },
    {
      "bufferView": 0,
      "byteOffset": 6528,
      "componentType": 5125,
      "count": 2328,
      "type": "SCALAR"
    },
    {
      "bufferView": 2,
      "byteOffset": 18240,
      "componentType": 5126,
      "count": 175,
      "max": [
        0.30000001192092896,
        0.14000022411346436,
        -4.099999904632568
      ],
      "min": [
        -0.30000001192092896,
        -0.14000022411346436,
        -4.700000286102295
      ],
      "type": "VEC3"
    },
    {
      "bufferView": 2,
      "byteOffset": 20340,
      "componentType": 5126,
      "count": 175,
      "max": [
        1.0,
        0.8835802674293518,
        0.815836489200592
      ],
      "min": [
        -1.0,
        -0.8835802674293518,
        -1.0
      ],
      "type": "VEC3"
    },
    {
      "bufferView": 3,
      "byteOffset": 12160,
      "componentType": 5126,
      "count": 175,
      "max": [
        0.9999980330467224,
        0.9998137354850769,
        0.5125385522842407,
        -1.0
      ],
      "min": [
        0.0,
        -0.9978405237197876,
        -0.5085504651069641,
        -1.0
      ],
      "type": "VEC4"
    },
    {
      "bufferView": 1,
      "byteOffset": 17216,
      "componentType": 5126,
      "count": 175,
      "max": [
        0.5693646669387817,
        0.9925597906112671
      ],
      "min": [
        0.007440180517733097,
        0.007440149784088135
      ],
      "type": "VEC2"
    },
    {
      "bufferView": 1,
      "byteOffset": 18616,
      "componentType": 5126,
      "count": 175,
      "max": [
        0.5693646669387817,
        0.9925597906112671
      ],
      "min": [
        0.007440180517733097,
        0.007440149784088135
      ],
      "type": "VEC2"
    },
    {
      "bufferView": 1,
      "byteOffset": 20016,
      "componentType": 5126,
      "count": 175,
      "max": [
        0.5693646669387817,
        0.9925597906112671
      ],
      "min": [
        0.007440180517733097,
        0.007440149784088135
      ],
      "type": "VEC2"
    },
    {
      "bufferView": 1,
      "byteOffset": 21416,
      "componentType": 5126,
      "count": 175,
      "max": [
        0.5693646669387817,
        0.9925597906112671
      ],
      "min": [
        0.007440180517733097,
        0.007440149784088135
      ],
      "type": "VEC2"
    },
    {
      "bufferView": 0,
      "byteOffset": 15840,
      "componentType": 5125,
      "count": 864,
      "type": "SCALAR"
    },
    {
      "bufferView": 2,
      "byteOffset": 22440,
      "componentType": 5126,
      "count": 188,
      "max": [
        0.5777784585952759,
        0.13000014424324036,
        -1.9432884454727173
      ],
      "min": [
        -0.5777784585952759,
        -0.13000014424324036,
        -2.6688425540924072
      ],
      "type": "VEC3"
    },
    {
      "bufferView": 2,
      "byteOffset": 24696,
      "componentType": 5126,
      "count": 188,
      "max": [
        0.9995425939559937,
        0.9540642499923706,
        0.9845064282417297
      ],
      "min": [
        -0.9995425939559937,
        -0.9540642499923706,
        -0.9575716853141785
      ],
      "type": "VEC3"
    },
    {
      "bufferView": 3,
      "byteOffset": 14960,
      "componentType": 5126,
      "count": 188,
      "max": [
        0.9922675490379333,
        0.984322190284729,
        0.9995422959327698,
        1.0
      ],
      "min": [
        -0.9922675490379333,
        -0.9851697683334351,
        -0.785081684589386,
        -1.0
      ],
      "type": "VEC4"
    },
    {
      "bufferView": 1,
      "byteOffset": 22816,
      "componentType": 5126,
      "count": 188,
      "max": [
        0.9889600276947021,
        0.9889599680900574
      ],
      "min": [
        0.01104004867374897,
        0.350210964679718
      ],
      "type": "VEC2"
    },
    {
      "bufferView": 1,
      "byteOffset": 24320,
      "componentType": 5126,
      "count": 188,
      "max": [
        0.9889600276947021,
        0.9889599680900574
      ],
      "min": [
        0.01104004867374897,
        0.350210964679718
      ],
      "type": "VEC2"
    },
    {
      "bufferView": 1,
      "byteOffset": 25824,
      "componentType": 5126,
      "count": 188,
      "max": [
        0.9889600276947021,
        0.9889599680900574
      ],
      "min": [
        0.01104004867374897,
        0.350210964679718
      ],
      "type": "VEC2"
    },
    {
      "bufferView": 1,
      "byteOffset": 27328,
      "componentType": 5126,
      "count": 188,
      "max": [
        0.9889600276947021,
        0.9889599680900574
      ],
      "min": [
        0.01104004867374897,
        0.350210964679718
      ],
      "type": "VEC2"
    },
    {
      "bufferView": 0,
      "byteOffset": 19296,
      "componentType": 5125,
      "count": 768,
      "type": "SCALAR"
    }
  ],
  "asset": {
    "extras": {
      "author": "CaptainHC (https://sketchfab.com/CaptainHC)",
      "license": "CC-BY-4.0 (http://creativecommons.org/licenses/by/4.0/)",
      "source": "https://sketchfab.com/3d-models/gladiator-sword-9c4c12d03a0548f89e5a0925ad7b6192",
      "title": "Gladiator Sword"
    },
    "generator": "Sketchfab-12.67.0",
    "version": "2.0"
  },
  "bufferViews": [
    {
      "buffer": 0,
      "byteLength": 22368,
      "name": "floatBufferViews",
      "target": 34963
    },
    {
      "buffer": 0,
      "byteLength": 28832,
      "byteOffset": 22368,
      "byteStride": 8,
      "name": "floatBufferViews",
      "target": 34962
    },
    {
      "buffer": 0,
      "byteLength": 26952,
      "byteOffset": 51200,
      "byteStride": 12,
      "name": "floatBufferViews",
      "target": 34962
    },
    {
      "buffer": 0,
      "byteLength": 17968,
      "byteOffset": 78152,
      "byteStride": 16,
      "name": "floatBufferViews",
      "target": 34962
    }
  ],
  "buffers": [
    {
      "byteLength": 96120,
      "uri": "scene.bin"
    }
  ],
  "images": [
    {
      "uri": "textures/Blade_baseColor.png"
    },
    {
      "uri": "textures/Blade_metallicRoughness.png"
    },
    {
      "uri": "textures/Blade_normal.png"
    },
    {
      "uri": "textures/Handle_baseColor.png"
    },
    {
      "uri": "textures/Handle_normal.png"
    },
    {
      "uri": "textures/Pommel_baseColor.png"
    },
    {
      "uri": "textures/Pommel_metallicRoughness.png"
    },
    {
      "uri": "textures/Pommel_normal.png"
    },
    {
      "uri": "textures/Guard_baseColor.png"
    },
    {
      "uri": "textures/Guard_metallicRoughness.png"
    },
    {
      "uri": "textures/Guard_normal.png"
    }
  ],
  "materials": [
    {
      "name": "Blade",
      "normalTexture": {
        "index": 2
      },
      "pbrMetallicRoughness": {
        "baseColorTexture": {
          "index": 0
        },
        "metallicRoughnessTexture": {
          "index": 1
        },
        "roughnessFactor": 0.8245560490029429
      }
    },
    {
      "name": "Handle",
      "normalTexture": {
        "index": 4
      },
      "pbrMetallicRoughness": {
        "baseColorTexture": {
          "index": 3
        },
        "metallicFactor": 0.0,
        "roughnessFactor": 0.8
      }
    },
    {
      "name": "Pommel",
      "normalTexture": {
        "index": 7
      },
      "pbrMetallicRoughness": {
        "baseColorTexture": {
          "index": 5
        },
        "metallicRoughnessTexture": {
          "index": 6
        }
      }
    },
    {
      "name": "Guard",
      "normalTexture": {
        "index": 10
      },
      "pbrMetallicRoughness": {
        "baseColorTexture": {
          "index": 8
        },
        "metallicRoughnessTexture": {
          "index": 9
        }
      }
    }
  ],
  "meshes": [
    {
      "name": "Object_0",
      "primitives": [
        {
          "attributes": {
            "NORMAL": 1,
            "POSITION": 0,
            "TANGENT": 2,
            "TEXCOORD_0": 3,
            "TEXCOORD_1": 4,
            "TEXCOORD_2": 5,
            "TEXCOORD_3": 6
          },
          "indices": 7,
          "material": 0,
          "mode": 4
        }
      ]
    },
    {
      "name": "Object_1",
      "primitives": [
        {
          "attributes": {
            "NORMAL": 9,
            "POSITION": 8,
            "TANGENT": 10,
            "TEXCOORD_0": 11,
            "TEXCOORD_1": 12
          },
          "indices": 13,
          "material": 1,
          "mode": 4
        }
      ]
    },
    {
      "name": "Object_2",
      "primitives": [
        {
          "attributes": {
            "NORMAL": 15,
            "POSITION": 14,
            "TANGENT": 16,
            "TEXCOORD_0": 17,
            "TEXCOORD_1": 18,
            "TEXCOORD_2": 19,
            "TEXCOORD_3": 20
          },
          "indices": 21,
          "material": 2,
          "mode": 4
        }
      ]
    },
    {
      "name": "Object_3",
      "primitives": [
        {
          "attributes": {
            "NORMAL": 23,
            "POSITION": 22,
            "TANGENT": 24,
            "TEXCOORD_0": 25,
            "TEXCOORD_1": 26,
            "TEXCOORD_2": 27,
            "TEXCOORD_3": 28
          },
          "indices": 29,
          "material": 3,
          "mode": 4
        }
      ]
    }
  ],
  "nodes": [
    {
      "children": [
        1
      ],
      "matrix": [
        0.3149789273738861,
        -0.9490986466407776,
        -2.1074223402823335e-16,
        0.0,
        0.0,
        2.220446049250313e-16,
        -1.0,
        0.0,
        0.9490986466407776,
        0.3149789273738861,
        6.993937148844467e-17,
        0.0,
        0.047398194670677185,
        -0.03424176573753357,
        2.01523762705028e-17,
        1.0
      ],
      "name": "Sketchfab_model"
    },
    {
      "children": [
        2
      ],
      "name": "root"
    },
    {
      "children": [
        3,
        5,
        7,
        9
      ],
      "matrix": [
        1.0,
        0.0,
        0.0,
        0.0,
        0.0,
        2.220446049250313e-16,
        1.0,
        0.0,
        0.0,
        -1.0,
        2.220446049250313e-16,
        0.0,
        0.0,
        0.0,
        0.0,
        1.0
      ],
      "name": "GLTF_SceneRootNode"
    },
    {
      "children": [
        4
      ],
      "matrix": [
        -0.9999999999999734,
        1.6292067439721559e-07,
        1.6292067439721559e-07,
        0.0,
        -1.6292067439721559e-07,
        1.3322676295501878e-14,
        -0.9999999999999867,
        0.0,
        -1.6292067439721559e-07,
        -0.9999999999999867,
        1.3322676295501878e-14,
        0.0,
        0.0,
        0.0,
        0.0,
        1.0
      ],
      "name": "Blade_0"
    },
    {
      "mesh": 0,
      "name": "Object_4"
    },
    {
      "children": [
        6
      ],
      "matrix": [
        -0.9999999999999734,
        1.6292067439721559e-07,
        1.6292067439721559e-07,
        0.0,
        -1.6292067439721559e-07,
        1.3322676295501878e-14,
        -0.9999999999999867,
        0.0,
        -1.6292067439721559e-07,
        -0.9999999999999867,
        1.3322676295501878e-14,
        0.0,
        0.0,
        0.0,
        0.0,
        1.0
      ],
      "name": "Hilt_1"
    },
    {
      "mesh": 1,
      "name": "Object_6"
    },
    {
      "children": [
        8
      ],
      "matrix": [
        -0.9999999999999734,
        1.6292067439721559e-07,
        1.6292067439721559e-07,
        0.0,
        -1.6292067439721559e-07,
        1.3322676295501878e-14,
        -0.9999999999999867,
        0.0,
        -1.6292067439721559e-07,
        -0.9999999999999867,
        1.3322676295501878e-14,
        0.0,
        0.0,
        0.0,
        0.0,
        1.0
      ],
      "name": "Pommel_2"
    },
    {
      "mesh": 2,
      "name": "Object_8"
    },
    {
      "children": [
        10
      ],
      "matrix": [
        -0.9999999999999734,
        1.6292067439721559e-07,
        1.6292067439721559e-07,
        0.0,
        -1.6292067439721559e-07,
        1.3322676295501878e-14,
        -0.9999999999999867,
        0.0,
        -1.6292067439721559e-07,
        -0.9999999999999867,
        1.3322676295501878e-14,
        0.0,
        0.0,
        0.0,
        0.0,
        1.0
      ],
      "name": "Guard_3"
    },
    {
      "mesh": 3,
      "name": "Object_10"
    }
  ],
  "samplers": [
    {
      "magFilter": 9729,
      "minFilter": 9987,
      "wrapS": 10497,
      "wrapT": 10497
    }
  ],
  "scene": 0,
  "scenes": [
    {
      "name": "Sketchfab_Scene",
      "nodes": [
        0
      ]
    }
  ],
  "textures": [
    {
      "sampler": 0,
      "source": 0
    },
    {
      "sampler": 0,
      "source": 1
    },
    {
      "sampler": 0,
      "source": 2
    },
    {
      "sampler": 0,
      "source": 3
    },
    {
      "sampler": 0,
      "source": 4
    },
    {
      "sampler": 0,
      "source": 5
    },
    {
      "sampler": 0,
      "source": 6
    },
    {
      "sampler": 0,
      "source": 7
    },
    {
      "sampler": 0,
      "source": 8
    },
    {
      "sampler": 0,
      "source": 9
    },
    {
      "sampler": 0,
      "source": 10
    }
  ]
}
